<svg id="svg" version="1.1" xmlns="http://www.w3.org/2000/svg" width="400" height="400" viewBox="0, 0, 400,400">
    <g id="svgg">
        <path id="path0"
              d="M46.309 44.432 C 48.552 48.697,53.300 57.630,59.961 70.117 C 60.877 71.836,64.661 78.955,68.368 85.938 C 72.075 92.920,80.596 108.828,87.303 121.289 C 94.011 133.750,102.892 150.273,107.040 158.008 C 111.188 165.742,120.723 183.496,128.229 197.461 C 135.735 211.426,143.906 226.631,146.388 231.250 C 148.869 235.869,152.522 242.637,154.504 246.289 C 156.487 249.941,163.647 263.213,170.414 275.781 C 186.495 305.645,199.995 330.594,200.165 330.764 C 200.239 330.838,201.927 327.858,203.915 324.141 C 205.902 320.424,208.544 315.537,209.784 313.281 C 212.292 308.718,217.255 299.537,233.115 270.117 C 239.022 259.160,244.095 249.849,244.388 249.425 C 244.682 249.001,244.922 248.412,244.922 248.116 C 244.922 247.713,230.408 221.142,225.867 213.230 C 225.224 212.110,225.118 212.324,239.284 186.133 C 241.608 181.836,246.607 172.530,250.393 165.453 L 257.276 152.585 253.263 145.244 C 251.055 141.206,248.156 136.010,246.819 133.697 C 245.483 131.385,244.199 129.141,243.966 128.711 C 243.043 127.007,240.138 122.266,240.017 122.266 C 239.946 122.266,238.536 124.858,236.883 128.027 C 232.300 136.816,226.482 147.828,222.074 156.055 C 219.887 160.137,215.740 167.902,212.857 173.310 C 207.708 182.974,207.608 183.126,207.073 182.099 C 203.824 175.859,174.152 120.765,163.489 101.172 C 153.425 82.680,144.172 65.415,135.436 48.828 L 130.601 39.648 87.145 39.549 L 43.688 39.450 46.309 44.432 M115.162 73.535 C 116.973 76.919,119.714 82.027,134.181 108.984 C 137.352 114.893,140.605 120.957,141.410 122.461 C 142.215 123.965,145.292 129.678,148.248 135.156 C 151.204 140.635,155.553 148.721,157.913 153.125 C 160.273 157.529,163.966 164.385,166.118 168.359 C 168.271 172.334,171.918 179.102,174.223 183.398 C 182.439 198.713,186.864 206.929,190.424 213.477 C 192.409 217.129,196.012 223.809,198.431 228.320 C 200.849 232.832,204.479 239.536,206.497 243.217 L 210.166 249.911 205.425 258.842 C 202.817 263.754,200.559 267.912,200.405 268.081 C 200.252 268.250,198.046 264.559,195.502 259.878 C 192.958 255.197,190.585 250.840,190.227 250.195 C 189.870 249.551,187.591 245.332,185.164 240.820 C 182.736 236.309,177.281 226.201,173.042 218.359 C 168.803 210.518,162.960 199.707,160.057 194.336 C 157.154 188.965,152.233 179.824,149.121 174.023 C 143.620 163.767,107.501 96.742,99.023 81.055 C 96.700 76.758,94.388 72.587,93.884 71.785 C 93.381 70.984,92.969 70.237,92.969 70.125 C 92.969 70.013,97.527 69.922,103.098 69.922 L 113.228 69.922 115.162 73.535 "
              stroke="none" fill="#040404" fill-rule="evenodd"></path>
        <path id="path1"
              d="M194.652 39.746 C 194.743 39.907,196.798 43.643,199.218 48.047 C 201.637 52.451,205.240 58.955,207.224 62.500 C 209.208 66.045,213.473 73.691,216.702 79.492 C 219.931 85.293,225.601 95.400,229.302 101.953 C 240.577 121.916,241.503 123.584,242.094 125.000 C 242.408 125.752,244.287 129.180,246.270 132.617 C 248.253 136.055,251.158 141.240,252.725 144.141 C 254.293 147.041,256.064 150.228,256.662 151.224 L 257.749 153.033 254.810 158.450 C 253.194 161.430,250.728 165.977,249.329 168.555 C 243.156 179.933,242.502 181.273,242.887 181.752 C 243.098 182.013,245.341 185.918,247.872 190.430 C 250.403 194.941,253.617 200.654,255.015 203.125 C 256.413 205.596,258.553 209.426,259.771 211.637 L 261.986 215.657 266.885 206.559 C 269.580 201.555,274.723 191.935,278.314 185.180 C 281.905 178.426,287.172 168.582,290.019 163.305 C 292.865 158.028,297.792 148.877,300.967 142.969 C 304.142 137.061,308.805 128.447,311.330 123.828 C 313.855 119.209,316.931 113.408,318.166 110.938 C 319.401 108.467,323.263 101.260,326.750 94.922 C 335.708 78.636,342.388 66.319,345.709 59.961 C 347.279 56.953,350.181 51.504,352.157 47.852 C 354.133 44.199,355.956 40.815,356.209 40.332 L 356.668 39.453 275.577 39.453 C 230.976 39.453,194.560 39.585,194.652 39.746 M305.522 70.605 C 305.321 70.981,301.562 78.145,297.167 86.523 C 292.773 94.902,286.974 105.889,284.280 110.938 C 281.586 115.986,278.704 121.389,277.875 122.943 C 276.085 126.296,276.230 126.247,274.982 123.922 C 274.435 122.904,267.537 110.618,259.653 96.620 C 251.768 82.623,245.210 70.889,245.078 70.546 C 244.860 69.978,247.559 69.922,275.363 69.922 C 304.312 69.922,305.868 69.957,305.522 70.605 "
              stroke="none" fill="#ebbd46" fill-rule="evenodd"></path>
        <path id="path3"
              d="M95.616 70.208 C 96.535 70.291,97.941 70.290,98.741 70.206 C 99.541 70.122,98.789 70.054,97.070 70.056 C 95.352 70.057,94.697 70.126,95.616 70.208 M103.418 70.212 C 105.190 70.285,108.091 70.285,109.863 70.212 C 111.636 70.140,110.186 70.081,106.641 70.081 C 103.096 70.081,101.646 70.140,103.418 70.212 "
              stroke="none" fill="#98989a" fill-rule="evenodd"></path>
        <path id="path4" d="" stroke="none" fill="#747478" fill-rule="evenodd"></path>
    </g>
</svg>